<svg width="124" height="124" viewBox="0 0 124 124" fill="none" xmlns="http://www.w3.org/2000/svg">
<path d="M61.7281 123.44C49.5227 123.44 37.5913 119.82 27.4428 113.039C17.2943 106.258 9.38452 96.6202 4.71369 85.3438C0.0428524 74.0674 -1.17925 61.6592 1.20192 49.6882C3.58309 37.7173 9.46059 26.7213 18.0912 18.0907C26.7217 9.4601 37.7178 3.5826 49.6887 1.20143C61.6597 -1.17974 74.0679 0.0423641 85.3443 4.7132C96.6207 9.38403 106.259 17.2938 113.04 27.4423C119.821 37.5908 123.44 49.5222 123.44 61.7277C123.44 78.0947 116.938 93.7914 105.365 105.365C93.7919 116.938 78.0952 123.44 61.7281 123.44Z" fill="#C4C4C4"/>
</svg>
