<svg width="17" height="21" viewBox="0 0 17 21" fill="none" xmlns="http://www.w3.org/2000/svg">
<path d="M15.5 20.4707H3.5C2.70435 20.4707 1.94129 20.1546 1.37868 19.592C0.81607 19.0294 0.5 18.2664 0.5 17.4707L0.5 3.4707C0.5 2.67505 0.81607 1.91199 1.37868 1.34938C1.94129 0.786774 2.70435 0.470703 3.5 0.470703L14.5 0.470703C15.0304 0.470703 15.5391 0.681417 15.9142 1.05649C16.2893 1.43156 16.5 1.94027 16.5 2.4707V15.4607C16.5006 15.6248 16.4618 15.7867 16.387 15.9327L15.842 17.0237C15.7731 17.1628 15.7372 17.316 15.7372 17.4712C15.7372 17.6264 15.7731 17.7796 15.842 17.9187L16.386 19.0057C16.4617 19.149 16.5008 19.3087 16.5 19.4707C16.5 19.7359 16.3946 19.9903 16.2071 20.1778C16.0196 20.3653 15.7652 20.4707 15.5 20.4707ZM3.5 16.4707C3.23478 16.4707 2.98043 16.5761 2.79289 16.7636C2.60536 16.9511 2.5 17.2055 2.5 17.4707C2.5 17.7359 2.60536 17.9903 2.79289 18.1778C2.98043 18.3653 3.23478 18.4707 3.5 18.4707H13.907C13.6791 17.8235 13.6791 17.1179 13.907 16.4707H3.5ZM6.5 5.4707C6.23478 5.4707 5.98043 5.57606 5.79289 5.7636C5.60536 5.95113 5.5 6.20549 5.5 6.4707C5.5 6.73592 5.60536 6.99027 5.79289 7.17781C5.98043 7.36535 6.23478 7.4707 6.5 7.4707H10.5C10.7652 7.4707 11.0196 7.36535 11.2071 7.17781C11.3946 6.99027 11.5 6.73592 11.5 6.4707C11.5 6.20549 11.3946 5.95113 11.2071 5.7636C11.0196 5.57606 10.7652 5.4707 10.5 5.4707H6.5Z" fill="#F4F3FD"/>
</svg>
