<svg width="335" height="198" viewBox="0 0 335 198" fill="none" xmlns="http://www.w3.org/2000/svg">
<path d="M24.1937 197.077C17.7694 197.077 11.6083 194.525 7.0657 189.982C4.81626 187.733 3.0319 185.062 1.81454 182.123C0.597174 179.184 -0.0293632 176.034 -0.0292969 172.853L-0.0292969 24.223C-0.0291656 17.7987 2.52298 11.6376 7.0657 7.095C11.6083 2.55228 17.7694 0.000131314 24.1937 0L310.778 0C313.959 1.06231e-05 317.109 0.626587 320.047 1.84395C322.986 3.06132 325.656 4.84563 327.906 7.095C332.448 11.6376 335.001 17.7987 335.001 24.223V172.854C335.001 179.278 332.448 185.439 327.906 189.982C325.656 192.231 322.986 194.016 320.047 195.233C317.109 196.45 313.959 197.077 310.778 197.077H24.1937Z" fill="url(#paint0_linear_2_13303)"/>
<defs>
<linearGradient id="paint0_linear_2_13303" x1="94.4492" y1="98.5385" x2="346.993" y2="131.217" gradientUnits="userSpaceOnUse">
<stop stop-color="#3D5CFF"/>
<stop offset="1" stop-color="#FFE7EE"/>
</linearGradient>
</defs>
</svg>
