<svg width="111" height="91" viewBox="0 0 111 91" fill="none" xmlns="http://www.w3.org/2000/svg">
<path d="M55.8927 90.852H13.3467V47.668L55.8927 65.275V90.852Z" fill="#EAEAFF"/>
<path d="M13.3467 76.0894L44.3917 81.0674L55.8917 65.2754L16.4117 48.9434L13.3467 56.4714V76.0894Z" fill="#DADAF7"/>
<path d="M44.3919 81.068L55.8919 65.276L13.2489 47.668L1.50293 62.112L44.3919 81.068Z" fill="#F4F3FD"/>
<path d="M5.476 57.1849L4.25 62.5799L4.495 63.5609C6.5104 63.2341 8.43307 62.4817 10.135 61.3539C13.544 59.0729 26.025 59.8829 29.017 59.1469C30.979 58.6569 33.627 58.0469 34.191 56.3269L15.53 49.3379L5.476 57.1849Z" fill="#DADAF7"/>
<path d="M55.8926 90.852H98.4626V47.668L55.8926 65.275V90.852Z" fill="#DADAF7"/>
<path d="M98.4626 76.0894L67.4176 81.0674L55.8926 65.2754L95.3976 48.9434L98.4626 56.4714V76.0894Z" fill="#D0D0EF"/>
<path d="M55.893 34.7949L98.562 47.6689L55.893 65.0549L13.249 47.6689L55.893 34.7949Z" fill="#EAEAFF"/>
<path d="M67.4176 81.068L55.8926 65.275L98.5616 47.668L110.308 62.112L67.4176 81.068Z" fill="#F4F3FD"/>
<path d="M76.5896 61.352C76.5896 61.352 79.0666 65.352 81.2486 65.03C84.6816 64.54 83.5786 61.965 83.5786 61.965C83.5786 61.965 85.5406 63.682 87.1346 63.065C88.7286 62.448 88.6056 61.348 88.6056 61.348C88.6056 61.348 91.1806 61.961 91.7936 60.858C92.4066 59.755 87.4036 52.377 87.4036 52.377L85.7606 52.867L69.1836 59.709C69.3851 60.2054 69.6907 60.6527 70.0799 61.0209C70.4691 61.389 70.9328 61.6694 71.4396 61.843C72.2861 62.1168 73.1797 62.2145 74.0654 62.1301C74.9511 62.0457 75.8101 61.7808 76.5896 61.352Z" fill="#DADAF7"/>
<path d="M88.1907 54.2184L73.5747 60.2264L69.1367 42.2024L81.9367 38.8184L88.1907 54.2184Z" fill="#F9D2DD"/>
<path d="M3.8332 63.0944C5.4762 65.3264 8.9092 59.7104 8.9092 59.7104C8.9092 59.7104 26.2952 60.7644 33.8732 55.2714C36.7081 53.3049 38.8189 50.462 39.8812 47.1794L26.5652 43.5254C26.5652 43.5254 26.2952 47.6944 12.4892 49.0184C2.4602 49.9744 0.9392 54.5114 0.7192 57.8954C0.671915 59.3257 0.939561 60.749 1.5032 62.0644C1.5032 62.0644 4.6422 58.3864 5.2302 57.8714C5.2312 57.8704 2.5092 61.2554 3.8332 63.0944Z" fill="#F9D2DD"/>
<path d="M69.1367 42.2024L69.9217 49.5104L83.8987 43.5264L81.9367 38.8184L69.1367 42.2024Z" fill="#F9ACC0"/>
<path d="M84.0198 41.4166C84.0198 41.4166 74.7258 23.3926 60.9208 23.3926C47.1158 23.3926 40.7628 24.1776 35.3438 29.1306C29.8998 34.0846 26.0498 43.5006 26.0498 43.5006L39.9498 47.1546L38.4298 57.9446L55.8198 65.1786L73.3038 57.8706L70.7038 45.0706L84.0198 41.4166Z" fill="#3D5CFF"/>
<path d="M88.2136 54.2174L87.1586 51.6184C84.5069 51.441 81.8467 51.7994 79.3366 52.6724C77.6446 53.2114 73.0586 56.5964 73.0586 56.5964L73.8436 60.2254L88.2136 54.2174Z" fill="#F9ACC0"/>
<path d="M70.6316 45.2905L68.8906 36.6105C68.8842 36.5946 68.8817 36.5775 68.8833 36.5604C68.8849 36.5433 68.8905 36.5269 68.8996 36.5125C68.9088 36.498 68.9213 36.4859 68.9361 36.4773C68.9508 36.4686 68.9675 36.4635 68.9846 36.4625C69.0007 36.4553 69.0183 36.4522 69.0359 36.4534C69.0534 36.4545 69.0705 36.46 69.0855 36.4693C69.1005 36.4785 69.113 36.4913 69.1219 36.5066C69.1308 36.5218 69.1358 36.5389 69.1366 36.5565L70.8776 45.2415C70.8839 45.2578 70.8861 45.2754 70.8842 45.2928C70.8822 45.3102 70.876 45.3268 70.8662 45.3413C70.8563 45.3557 70.8431 45.3676 70.8277 45.3758C70.8123 45.3841 70.7951 45.3884 70.7776 45.3885H70.7546C70.7056 45.3885 70.6316 45.3395 70.6316 45.2905Z" fill="#DADAF7"/>
<path d="M39.803 47.571C39.729 47.546 39.68 47.497 39.703 47.424L42.039 36.262C42.064 36.188 42.139 36.139 42.186 36.162C42.26 36.187 42.309 36.236 42.286 36.309L39.955 47.473C39.9535 47.4876 39.9491 47.5018 39.9421 47.5148C39.9351 47.5277 39.9256 47.5392 39.9142 47.5485C39.9028 47.5578 39.8897 47.5647 39.8755 47.5689C39.8614 47.5731 39.8466 47.5745 39.832 47.573L39.803 47.571Z" fill="#DADAF7"/>
<path d="M39.8798 47.154L26.5648 43.5C26.4318 44.0906 26.1034 44.6191 25.6328 45L37.1828 52.132C38.4128 50.6746 39.3307 48.9803 39.8798 47.154Z" fill="#F9ACC0"/>
<path d="M102.952 32.1703C110.088 32.1703 112.834 24.6913 107.121 21.2583C106.086 20.6448 104.887 20.3671 103.688 20.4637C102.489 20.5602 101.349 21.0261 100.426 21.7973C100.426 21.7973 100.426 15.3973 92.8977 15.5193C85.3697 15.6413 86.2277 23.6853 86.2277 23.6853C86.2277 23.6853 82.3277 23.8083 81.8387 27.2853C81.3237 31.1353 86.1787 32.1653 88.6807 32.1653L102.952 32.1703Z" fill="#EAEAFF"/>
<path d="M64.4507 7.99208C64.2787 3.52908 62.8077 -0.933922 55.5737 0.170078C50.5987 0.930078 46.0097 2.05808 44.1987 6.50008C42.9207 9.61108 44.1707 15.7911 47.1377 18.2431C51.8947 22.1671 53.4647 19.8121 53.4647 19.8121L59.5467 15.6191C59.5467 15.6191 64.6717 14.2461 64.4507 7.99208Z" fill="#1F1F39"/>
<path d="M54.2492 11.6469C53.3912 11.7469 52.6312 11.8469 51.9682 11.9169C52.2364 13.5382 51.9332 15.2024 51.1102 16.6249V14.5399C51.0825 13.6912 50.91 12.8535 50.6002 12.0629C48.9822 12.2099 48.2462 12.2099 48.2462 12.2099C47.5932 12.1346 46.9356 12.307 46.4035 12.693C45.8713 13.0791 45.5034 13.6507 45.3722 14.2949C44.8572 16.6469 47.2122 17.4339 48.5112 17.4339C48.8694 17.4769 49.2326 17.4263 49.5652 17.2869V24.7659C49.5652 24.7659 49.8352 26.6049 54.5182 26.6049C58.4422 26.6049 59.2262 24.7659 59.2262 24.7659V19.2729C59.2262 19.2729 61.8263 17.9729 62.3652 15.8889C62.9042 13.8049 62.6122 9.04688 62.6122 9.04688C59.9677 10.3204 57.1497 11.1965 54.2492 11.6469Z" fill="#F9D2DD"/>
<path d="M59.203 23.5137V19.2227C56.065 20.7917 51.626 20.0077 51.626 20.0077C53.22 22.3127 56.526 23.1707 59.203 23.5137Z" fill="#F9ACC0"/>
<path d="M71.0973 60.4203C73.4273 63.2203 78.1353 59.7583 78.1353 59.7583C78.809 60.7346 79.3454 61.7989 79.7293 62.9213C79.9013 63.9513 81.1513 65.0543 83.1133 64.1963C85.0753 63.3383 84.9033 62.3083 84.9033 62.3083C84.9033 62.3083 86.7183 63.5833 88.1153 62.5533C89.5123 61.5233 89.3663 60.4933 89.3663 60.4933C89.3663 60.4933 90.9603 62.0873 92.3333 60.7873C93.7063 59.4873 91.5973 54.8283 90.0523 53.5043C88.5073 52.1803 87.1343 51.8863 84.0463 52.4013C81.2918 53.0936 78.6197 54.0803 76.0763 55.3443C76.0763 55.3443 68.7923 57.6243 71.0973 60.4203Z" fill="#F9D2DD"/>
<path d="M84.6822 62.3574L82.8432 57.6984C82.836 57.6824 82.8322 57.665 82.832 57.6474C82.8319 57.6298 82.8354 57.6123 82.8424 57.5961C82.8493 57.58 82.8596 57.5654 82.8725 57.5534C82.8853 57.5414 82.9006 57.5322 82.9172 57.5264C82.9332 57.5194 82.9505 57.5157 82.968 57.5156C82.9855 57.5156 83.0028 57.5191 83.0189 57.5261C83.0349 57.533 83.0494 57.5432 83.0613 57.556C83.0732 57.5688 83.0824 57.5839 83.0882 57.6004L84.9282 62.2594C84.9354 62.2755 84.9392 62.2929 84.9394 62.3105C84.9395 62.3281 84.936 62.3455 84.929 62.3617C84.9221 62.3779 84.9118 62.3924 84.8989 62.4044C84.8861 62.4164 84.8708 62.4256 84.8542 62.4314H84.8052C84.7798 62.4319 84.7548 62.4252 84.7331 62.4121C84.7113 62.399 84.6937 62.3801 84.6822 62.3574Z" fill="white"/>
<path d="M89.3658 60.543L87.5268 55.884C87.5196 55.8679 87.5158 55.8505 87.5156 55.8329C87.5155 55.8153 87.519 55.7979 87.526 55.7817C87.5329 55.7655 87.5432 55.751 87.5561 55.739C87.5689 55.727 87.5842 55.7178 87.6008 55.712C87.6168 55.7049 87.6341 55.7012 87.6516 55.7012C87.6691 55.7011 87.6864 55.7047 87.7025 55.7116C87.7185 55.7186 87.733 55.7288 87.7449 55.7415C87.7568 55.7543 87.766 55.7695 87.7718 55.786L89.6118 60.445C89.619 60.461 89.6228 60.4784 89.623 60.496C89.6231 60.5136 89.6196 60.5311 89.6126 60.5472C89.6057 60.5634 89.5954 60.578 89.5825 60.59C89.5697 60.602 89.5544 60.6112 89.5378 60.617H89.4888C89.4634 60.6174 89.4384 60.6108 89.4166 60.5977C89.3949 60.5846 89.3773 60.5656 89.3658 60.543Z" fill="white"/>
<path d="M0.987958 60.8859C0.968972 60.8885 0.949625 60.8863 0.931739 60.8794C0.913852 60.8725 0.898012 60.8612 0.885711 60.8465C0.87341 60.8318 0.865051 60.8142 0.86142 60.7954C0.85779 60.7766 0.859007 60.7571 0.864958 60.7389C1.01845 59.4957 1.47292 58.3087 2.18896 57.2809C2.76545 56.5206 3.49175 55.8865 4.32296 55.4179C4.35287 55.4049 4.38636 55.4027 4.41772 55.4116C4.44908 55.4206 4.47638 55.4401 4.49496 55.4669C4.50768 55.4967 4.50975 55.53 4.50083 55.5611C4.4919 55.5922 4.47253 55.6194 4.44596 55.6379C3.66113 56.1017 2.97048 56.7089 2.40996 57.4279C1.73106 58.4251 1.29446 59.5671 1.13496 60.7629C1.12443 60.7951 1.10506 60.8237 1.07908 60.8455C1.05309 60.8672 1.02152 60.8812 0.987958 60.8859Z" fill="white"/>
<path d="M0.394781 57.7979C0.320781 57.7729 0.271781 57.6979 0.294781 57.6509C0.605081 56.4354 1.1951 55.3091 2.01778 54.3619C2.67552 53.6755 3.46904 53.1337 4.34778 52.7709C4.36384 52.7637 4.38123 52.7599 4.39883 52.7598C4.41644 52.7596 4.43388 52.7631 4.45006 52.7701C4.46623 52.7771 4.48078 52.7873 4.49279 52.8002C4.50479 52.8131 4.51398 52.8283 4.51978 52.8449C4.527 52.861 4.53081 52.8784 4.53095 52.896C4.53109 52.9136 4.52757 52.931 4.52061 52.9472C4.51366 52.9634 4.50341 52.9779 4.49053 52.9899C4.47764 53.0019 4.46241 53.0111 4.44578 53.0169C3.60615 53.3779 2.84725 53.9032 2.21378 54.5619C1.42818 55.4781 0.858482 56.559 0.546781 57.7249C0.515803 57.7634 0.472232 57.7896 0.423781 57.7989L0.394781 57.7979Z" fill="white"/>
</svg>
