<svg width="19" height="19" viewBox="0 0 19 19" fill="none" xmlns="http://www.w3.org/2000/svg">
<path d="M10.7 0.495703L17.7 5.7457C17.9484 5.932 18.15 6.17356 18.2889 6.45128C18.4277 6.72899 18.5 7.03521 18.5 7.3457V16.8457C18.5 17.3761 18.2893 17.8848 17.9142 18.2599C17.5391 18.635 17.0304 18.8457 16.5 18.8457H2.5C1.96957 18.8457 1.46086 18.635 1.08579 18.2599C0.710714 17.8848 0.5 17.3761 0.5 16.8457V7.3457C0.5 7.03521 0.57229 6.72899 0.711146 6.45128C0.850001 6.17356 1.05161 5.932 1.3 5.7457L8.3 0.495703C8.64619 0.236059 9.06726 0.0957031 9.5 0.0957031C9.93274 0.0957031 10.3538 0.236059 10.7 0.495703Z" fill="#F4F3FD"/>
</svg>
