<svg width="21" height="18" viewBox="0 0 21 18" fill="none" xmlns="http://www.w3.org/2000/svg">
<path d="M10.5 17.95C10.2533 17.9502 10.0121 17.8771 9.807 17.74L7.2 16H3.5C2.70435 16 1.94129 15.6839 1.37868 15.1213C0.81607 14.5587 0.5 13.7956 0.5 13L0.5 3C0.5 2.20435 0.81607 1.44129 1.37868 0.87868C1.94129 0.31607 2.70435 0 3.5 0L17.5 0C18.2956 0 19.0587 0.31607 19.6213 0.87868C20.1839 1.44129 20.5 2.20435 20.5 3V13C20.5 13.7956 20.1839 14.5587 19.6213 15.1213C19.0587 15.6839 18.2956 16 17.5 16H13.8L11.191 17.74C10.9864 17.8766 10.746 17.9496 10.5 17.95ZM14 7C13.7033 7 13.4133 7.08797 13.1666 7.2528C12.92 7.41762 12.7277 7.65189 12.6142 7.92597C12.5006 8.20006 12.4709 8.50166 12.5288 8.79264C12.5867 9.08361 12.7296 9.35088 12.9393 9.56066C13.1491 9.77044 13.4164 9.9133 13.7074 9.97118C13.9983 10.0291 14.2999 9.99935 14.574 9.88582C14.8481 9.77229 15.0824 9.58003 15.2472 9.33335C15.412 9.08668 15.5 8.79667 15.5 8.5C15.5 8.10218 15.342 7.72064 15.0607 7.43934C14.7794 7.15804 14.3978 7 14 7ZM7 7C6.70333 7 6.41332 7.08797 6.16664 7.2528C5.91997 7.41762 5.72771 7.65189 5.61418 7.92597C5.50065 8.20006 5.47094 8.50166 5.52882 8.79264C5.5867 9.08361 5.72956 9.35088 5.93934 9.56066C6.14912 9.77044 6.41639 9.9133 6.70736 9.97118C6.99834 10.0291 7.29994 9.99935 7.57403 9.88582C7.84811 9.77229 8.08238 9.58003 8.2472 9.33335C8.41203 9.08668 8.5 8.79667 8.5 8.5C8.5 8.10218 8.34196 7.72064 8.06066 7.43934C7.77936 7.15804 7.39782 7 7 7Z" fill="#F4F3FD"/>
</svg>
