<svg width="161" height="160" viewBox="0 0 161 160" fill="none" xmlns="http://www.w3.org/2000/svg">
<path d="M57.3092 51.292C65.8832 51.292 69.2092 42.298 62.3372 38.141C61.0902 37.4029 59.6451 37.0696 58.2009 37.1871C56.7566 37.3046 55.3844 37.867 54.2731 38.797C54.2731 38.797 54.2732 31.067 45.2132 31.213C36.1292 31.359 37.1732 41.058 37.1732 41.058C37.1732 41.058 32.4612 41.204 31.9032 45.411C31.2712 50.054 37.0772 51.294 40.1132 51.294L57.3092 51.292Z" fill="#EAEAFF"/>
<path d="M99.8382 47.5221C100.299 48.177 100.828 48.7805 101.417 49.3221C101.702 49.5838 102.011 49.8181 102.34 50.0221C102.659 50.2385 103.001 50.418 103.36 50.5571C103.712 50.6917 104.079 50.7814 104.453 50.8241C104.824 50.8727 105.2 50.8727 105.57 50.8241C106.287 50.7923 106.965 50.4879 107.465 49.9731C107.686 49.7095 107.847 49.4019 107.939 49.0708C108.032 48.7397 108.052 48.3927 107.999 48.0531C107.929 47.3398 107.621 46.6707 107.125 46.1531C106.913 45.9195 106.634 45.758 106.325 45.6911C106.18 45.6711 106.034 45.663 105.888 45.6671C105.743 45.6901 105.603 45.7395 105.475 45.8131C105.346 45.8897 105.231 45.9886 105.135 46.1051C105.027 46.2294 104.937 46.3685 104.868 46.5181C104.724 46.8435 104.633 47.1899 104.599 47.5441C104.54 48.3027 104.639 49.0652 104.891 49.7831C105.013 50.1497 105.16 50.5072 105.331 50.8531C105.506 51.2033 105.7 51.5438 105.911 51.8731C106.358 52.5319 106.862 53.15 107.417 53.7201C107.684 54.0121 107.976 54.3031 108.267 54.5951C108.558 54.8621 108.85 55.1541 109.167 55.4211C109.773 55.961 110.423 56.4491 111.11 56.8801C111.453 57.0981 111.81 57.2929 112.179 57.4631C112.542 57.6472 112.925 57.7859 113.321 57.8761C112.503 57.7733 111.712 57.5176 110.989 57.1221C110.257 56.7453 109.558 56.306 108.9 55.8091C108.241 55.3094 107.608 54.7753 107.005 54.2091C106.391 53.6369 105.831 53.0096 105.331 52.3351C104.818 51.6537 104.407 50.9003 104.113 50.0991C103.804 49.2767 103.663 48.4002 103.7 47.5221C103.718 47.0575 103.834 46.6019 104.04 46.1851C104.147 45.9608 104.278 45.7489 104.431 45.5531C104.596 45.3589 104.793 45.1945 105.014 45.0671C105.249 44.9386 105.504 44.8485 105.767 44.8001C106.025 44.7595 106.289 44.7677 106.544 44.8241C107.039 44.9276 107.488 45.1824 107.831 45.5531C108.462 46.2367 108.854 47.1066 108.948 48.0321C109.005 48.4975 108.964 48.9696 108.827 49.4181C108.707 49.8856 108.465 50.3132 108.127 50.6581C107.799 50.9986 107.402 51.264 106.961 51.4361C106.542 51.6024 106.099 51.701 105.649 51.7281C104.768 51.8002 103.883 51.6581 103.069 51.3141C102.285 50.9569 101.576 50.454 100.98 49.8321C100.395 49.2291 99.8816 48.5603 99.4503 47.8391C98.6099 46.3992 97.9646 44.854 97.5312 43.2441C98.1251 44.7579 98.8998 46.1943 99.8382 47.5221Z" fill="#EAEAFF"/>
<path d="M104.089 32.0627L77.3711 25.0137L98.9881 40.8137L104.089 32.0627Z" fill="#DADAF7"/>
<path d="M102.146 35.2237L91.7011 39.8417L77.3711 25.0137L102.146 35.2237Z" fill="#F4F3FD"/>
<path d="M115.262 27.6877L77.3711 25.0137L104.089 32.0627L115.262 27.6877Z" fill="#F4F3FD"/>
<path opacity="0.999" d="M21.021 126.866H142.708C142.74 118.855 141.191 110.917 138.148 103.506C135.104 96.096 130.628 89.3595 124.975 83.6835C119.322 78.0075 112.603 73.5036 105.205 70.4305C97.8075 67.3574 89.8754 65.7754 81.8645 65.7754C73.8536 65.7754 65.9216 67.3574 58.5236 70.4305C51.1256 73.5036 44.4073 78.0075 38.7542 83.6835C33.1011 89.3595 28.6246 96.096 25.5814 103.506C22.5383 110.917 20.9885 118.855 21.021 126.866Z" fill="#F4F3FD"/>
<path d="M114.266 68.841C115.383 68.452 116.501 68.141 117.642 67.82C118.784 67.529 119.926 67.261 121.095 67.042C122.264 66.8193 123.449 66.6813 124.638 66.629C125.866 66.5532 127.098 66.6348 128.305 66.872C128.939 66.9994 129.558 67.1949 130.151 67.455C130.774 67.7207 131.342 68.0998 131.827 68.573C132.34 69.0537 132.753 69.6316 133.041 70.273C133.315 70.8978 133.487 71.5626 133.551 72.242C133.641 73.5253 133.518 74.8147 133.187 76.058C132.869 77.2403 132.455 78.3945 131.948 79.509C130.948 81.6846 129.77 83.774 128.426 85.756C125.778 89.6785 122.813 93.3775 119.561 96.816C117.961 98.542 116.282 100.216 114.561 101.824C114.148 102.237 113.687 102.624 113.225 103.015L111.865 104.182C111.646 104.376 111.404 104.547 111.165 104.741L110.465 105.276L109.056 106.37C108.109 107.07 107.137 107.731 106.166 108.436C105.68 108.776 105.194 109.092 104.709 109.436L103.252 110.408L102.523 110.894L101.77 111.356L100.288 112.304C99.7779 112.62 99.2879 112.936 98.7819 113.228L97.2759 114.128L95.7699 115.028L94.2399 115.903C93.2199 116.486 92.1999 117.07 91.1799 117.629C89.1133 118.747 87.0486 119.841 84.9859 120.911C80.7949 123.025 76.5949 125.067 72.2949 126.914C76.3509 124.58 80.3829 122.247 84.3949 119.865C86.3869 118.674 88.4029 117.483 90.3699 116.243L93.3329 114.396L94.8149 113.472L96.2719 112.524C100.158 109.972 104.044 107.424 107.663 104.575C108.537 103.846 109.463 103.141 110.335 102.412L111.622 101.27C112.035 100.881 112.472 100.516 112.885 100.103C114.561 98.503 116.185 96.87 117.767 95.168C119.346 93.491 120.876 91.741 122.333 89.968C123.815 88.193 125.199 86.368 126.511 84.474C127.831 82.6161 129 80.6547 130.005 78.609C130.487 77.612 130.893 76.5801 131.219 75.522C131.546 74.5182 131.702 73.4665 131.68 72.411C131.66 71.453 131.288 70.5359 130.636 69.834C129.883 69.1393 128.962 68.6532 127.964 68.424C126.889 68.1706 125.789 68.0401 124.685 68.035C123.549 68.0276 122.413 68.0924 121.285 68.229C118.984 68.4949 116.704 68.9172 114.46 69.493C113.343 69.76 112.201 70.076 111.084 70.393C109.967 70.71 108.849 71.074 107.732 71.438C109.858 70.4472 112.04 69.5801 114.266 68.841Z" fill="#DADAF7"/>
<path d="M102.631 93.0775C101.38 93.0785 100.158 92.7087 99.1181 92.0148C98.0781 91.321 97.2673 90.3343 96.7882 89.1795C96.3091 88.0248 96.1832 86.7539 96.4265 85.5276C96.6698 84.3013 97.2713 83.1747 98.155 82.2904C99.0387 81.406 100.165 80.8036 101.391 80.5593C102.617 80.315 103.888 80.4399 105.043 80.9181C106.198 81.3963 107.186 82.2064 107.88 83.2458C108.575 84.2852 108.946 85.5073 108.946 86.7575C108.946 88.433 108.281 90.04 107.097 91.2252C105.913 92.4104 104.306 93.0767 102.631 93.0775Z" fill="#EAEAFF"/>
<path d="M74.0925 105.96C71.9046 105.962 69.7652 105.315 67.945 104.101C66.1248 102.887 64.7055 101.161 63.8666 99.1402C63.0278 97.1195 62.8072 94.8954 63.2326 92.7493C63.658 90.6031 64.7104 88.6314 66.2566 87.0835C67.8029 85.5356 69.7735 84.481 71.9191 84.0533C74.0648 83.6255 76.2891 83.8438 78.3107 84.6804C80.3323 85.517 82.0604 86.9345 83.2763 88.7534C84.4922 90.5723 85.1413 92.711 85.1415 94.8988C85.1428 97.8307 83.9795 100.643 81.9075 102.717C79.8355 104.792 77.0244 105.958 74.0925 105.96Z" fill="#EAEAFF"/>
<path d="M33.6031 102.387L46.2331 107.224L37.9791 126.671L33.6071 126.695L27.5791 117.434L33.6031 102.387Z" fill="#F9ACC0"/>
<path d="M55.9 69.6926C57.795 70.5676 56.459 72.5606 54.637 74.6516C52.912 76.6206 42.537 97.1616 42.537 97.1616C42.537 97.1616 43.144 121.397 36.562 125.676C29.98 129.955 16.474 123.585 21.288 107.76C26.102 91.9346 43.439 65.7306 49.22 63.5916C55.001 61.4526 56.555 63.5916 56.167 66.1916C55.997 67.3826 54.904 67.6986 53.349 69.4736C51.503 71.5406 49.974 73.5826 49.974 73.5826C49.974 73.5826 53.981 68.8166 55.9 69.6926Z" fill="#F9D2DD"/>
<path d="M48.3703 71.0045C48.3494 70.982 48.3358 70.9537 48.3316 70.9233C48.3273 70.8929 48.3324 70.8619 48.3463 70.8345C49.777 69.0842 51.3012 67.4124 52.9123 65.8265C53.7741 65.0043 54.8386 64.4256 55.9973 64.1495C56.0296 64.1454 56.0624 64.1533 56.0893 64.1717C56.1162 64.1901 56.1354 64.2178 56.1433 64.2495C56.1474 64.2819 56.1395 64.3146 56.1211 64.3416C56.1026 64.3685 56.075 64.3877 56.0433 64.3955C54.9342 64.6644 53.9135 65.2156 53.0803 65.9955C51.4776 67.5736 49.9621 69.2377 48.5403 70.9805C48.5285 70.9958 48.5133 71.0082 48.496 71.0167C48.4786 71.0252 48.4596 71.0296 48.4403 71.0295C48.4275 71.0306 48.4146 71.029 48.4025 71.0247C48.3905 71.0204 48.3795 71.0135 48.3703 71.0045Z" fill="white"/>
<path d="M45.8428 69.5218C45.8314 69.5108 45.8223 69.4976 45.8161 69.483C45.8098 69.4684 45.8066 69.4527 45.8066 69.4368C45.8066 69.421 45.8098 69.4052 45.8161 69.3906C45.8223 69.376 45.8314 69.3628 45.8428 69.3518C47.2513 67.7046 48.7766 66.161 50.4068 64.7328C51.548 63.8589 52.8195 63.1698 54.1748 62.6908C54.2038 62.6818 54.2352 62.6844 54.2625 62.698C54.2897 62.7116 54.3106 62.7352 54.3208 62.7638C54.3297 62.793 54.327 62.8245 54.3132 62.8517C54.2994 62.879 54.2756 62.8998 54.2468 62.9098C52.9184 63.3751 51.6723 64.0481 50.5548 64.9038C48.9435 66.3276 47.4342 67.8627 46.0378 69.4978C45.9888 69.5218 45.9648 69.5468 45.9168 69.5468C45.9034 69.5486 45.8897 69.5472 45.8769 69.5429C45.8641 69.5385 45.8524 69.5313 45.8428 69.5218Z" fill="white"/>
<path d="M55.7539 89.43H65.9539L65.4699 80.193L55.9969 79.707L55.7539 89.43Z" fill="#F9D2DD"/>
<path d="M65.615 82.6485L65.591 82.5995L55.975 80.7285L55.875 85.0285L65.615 82.6485Z" fill="#F9ACC0"/>
<path d="M71.542 63.9061C68.141 58.3151 54.054 62.9341 51.382 66.3371C48.71 69.7401 52.548 78.9531 54.297 80.9221C57.94 85.0541 65.956 82.8671 65.956 82.8671L71.056 72.1671C71.056 72.1671 73.971 67.9171 71.542 63.9061Z" fill="#1F1F39"/>
<path d="M68.8707 72.4141C68.3597 72.4871 66.7087 72.2681 66.3197 72.2681C66.5746 72.8398 66.6752 73.4684 66.6113 74.0911C66.5474 74.7139 66.3214 75.309 65.9557 75.8171C65.9615 75.138 65.7942 74.4686 65.4697 73.8721C64.2557 71.6851 59.8837 73.1391 61.3407 76.5471C62.2877 78.7591 64.9837 78.0051 64.9837 78.0051C65.1547 78.8049 65.2362 79.6212 65.2267 80.4391C65.2861 81.2783 65.1182 82.1181 64.7407 82.8701C64.7407 82.8701 69.3557 83.1131 70.5697 79.4701C71.3151 76.8967 71.5952 74.2109 71.3967 71.5391C70.6689 72.0913 69.7842 72.3978 68.8707 72.4141Z" fill="#F9D2DD"/>
<path d="M55.9 69.6926C57.795 70.5676 56.459 72.5606 54.637 74.6516C52.912 76.6206 42.537 97.1616 42.537 97.1616C42.537 97.1616 43.144 121.397 36.562 125.676C29.98 129.955 16.474 123.585 21.288 107.76C26.102 91.9346 43.439 65.7306 49.22 63.5916C55.001 61.4526 56.555 63.5916 56.167 66.1916C55.997 67.3826 54.904 67.6986 53.349 69.4736C51.503 71.5406 49.974 73.5826 49.974 73.5826C49.974 73.5826 53.981 68.8166 55.9 69.6926Z" fill="#F9D2DD"/>
<path d="M48.3703 71.0045C48.3494 70.982 48.3358 70.9537 48.3316 70.9233C48.3273 70.8929 48.3324 70.8619 48.3463 70.8345C49.777 69.0842 51.3012 67.4124 52.9123 65.8265C53.7741 65.0043 54.8386 64.4256 55.9973 64.1495C56.0296 64.1454 56.0624 64.1533 56.0893 64.1717C56.1162 64.1901 56.1354 64.2178 56.1433 64.2495C56.1474 64.2819 56.1395 64.3146 56.1211 64.3416C56.1026 64.3685 56.075 64.3877 56.0433 64.3955C54.9342 64.6644 53.9135 65.2156 53.0803 65.9955C51.4776 67.5736 49.9621 69.2377 48.5403 70.9805C48.5285 70.9958 48.5133 71.0082 48.496 71.0167C48.4786 71.0252 48.4596 71.0296 48.4403 71.0295C48.4275 71.0306 48.4146 71.029 48.4025 71.0247C48.3905 71.0204 48.3795 71.0135 48.3703 71.0045Z" fill="white"/>
<path d="M45.8428 69.5218C45.8314 69.5108 45.8223 69.4976 45.8161 69.483C45.8098 69.4684 45.8066 69.4527 45.8066 69.4368C45.8066 69.421 45.8098 69.4052 45.8161 69.3906C45.8223 69.376 45.8314 69.3628 45.8428 69.3518C47.2513 67.7046 48.7766 66.161 50.4068 64.7328C51.548 63.8589 52.8195 63.1698 54.1748 62.6908C54.2038 62.6818 54.2352 62.6844 54.2625 62.698C54.2897 62.7116 54.3106 62.7352 54.3208 62.7638C54.3297 62.793 54.327 62.8245 54.3132 62.8517C54.2994 62.879 54.2756 62.8998 54.2468 62.9098C52.9184 63.3751 51.6723 64.0481 50.5548 64.9038C48.9435 66.3276 47.4342 67.8627 46.0378 69.4978C45.9888 69.5218 45.9648 69.5468 45.9168 69.5468C45.9034 69.5486 45.8897 69.5472 45.8769 69.5429C45.8641 69.5385 45.8524 69.5313 45.8428 69.5218Z" fill="white"/>
<path d="M87.2814 102.607L74.6514 107.469L82.9094 126.915L97.0454 126.866L87.2814 102.607Z" fill="#F9D2DD"/>
<path d="M27.0202 110.433C26.9937 110.415 26.9744 110.388 26.9654 110.357C26.9565 110.326 26.9585 110.293 26.9712 110.263L30.1292 104.915C30.1476 104.889 30.1746 104.869 30.2056 104.861C30.2366 104.852 30.2697 104.854 30.2992 104.867C30.3257 104.886 30.345 104.912 30.354 104.943C30.3629 104.974 30.3608 105.008 30.3482 105.037L27.1902 110.385C27.1902 110.434 27.1412 110.458 27.0902 110.458C27.0774 110.459 27.0645 110.458 27.0525 110.453C27.0404 110.449 27.0294 110.442 27.0202 110.433Z" fill="white"/>
<path d="M42.5159 117.507L44.2159 108.756L31.3429 104.137L30.1289 105.109L42.5159 117.507Z" fill="#F9ACC0"/>
<path d="M89.2244 107.42L87.2814 102.607L74.6514 107.469L77.8094 114.932L89.2244 107.42Z" fill="#F9ACC0"/>
<path d="M42.1021 110.386L30.2021 104.794C30.2021 104.794 31.1251 103.433 32.7521 101.464C35.9821 97.5988 40.9371 91.6638 47.6651 88.7508C57.9391 84.3268 69.1852 86.0038 75.1111 89.4798C81.5841 93.2849 86.7506 98.9639 89.9282 105.767L77.7841 110.386L82.9091 126.916H37.0021L42.1021 110.386Z" fill="#3D5CFF"/>
<path d="M42.0549 110.507C42.0399 110.503 42.0259 110.496 42.0138 110.486C42.0018 110.476 41.992 110.464 41.985 110.45C41.9781 110.436 41.9742 110.421 41.9737 110.406C41.9732 110.39 41.9759 110.375 41.9819 110.361L45.6249 100.395C45.6287 100.379 45.6357 100.365 45.6456 100.353C45.6554 100.341 45.6678 100.331 45.6819 100.324C45.696 100.317 45.7115 100.313 45.7272 100.313C45.7429 100.312 45.7585 100.315 45.7729 100.322C45.7879 100.325 45.8019 100.332 45.8139 100.342C45.826 100.352 45.8358 100.364 45.8427 100.378C45.8496 100.392 45.8535 100.407 45.854 100.422C45.8546 100.438 45.8518 100.453 45.8459 100.468L42.2009 110.434C42.2009 110.483 42.1519 110.507 42.1009 110.507H42.0549Z" fill="#DADAF7"/>
<path d="M77.6861 110.432L74.0431 100.466C74.0355 100.452 74.0315 100.437 74.0313 100.421C74.031 100.405 74.0347 100.389 74.0418 100.375C74.049 100.36 74.0594 100.348 74.0724 100.338C74.0853 100.329 74.1003 100.323 74.1161 100.32C74.1302 100.313 74.1459 100.309 74.1619 100.309C74.1778 100.308 74.1936 100.312 74.2079 100.319C74.2222 100.326 74.2346 100.337 74.244 100.35C74.2535 100.363 74.2596 100.378 74.2621 100.393L77.9051 110.359C77.9126 110.374 77.9167 110.389 77.9169 110.405C77.9171 110.421 77.9135 110.437 77.9063 110.451C77.8992 110.466 77.8887 110.478 77.8758 110.487C77.8629 110.497 77.8479 110.503 77.8321 110.505H77.8081C77.7829 110.506 77.7582 110.499 77.7366 110.486C77.715 110.474 77.6975 110.455 77.6861 110.432Z" fill="#DADAF7"/>
<path d="M136.876 125.528C136.896 124.064 136.625 122.611 136.078 121.253C135.532 119.895 134.721 118.66 133.693 117.618C132.665 116.576 131.44 115.748 130.09 115.184C128.739 114.619 127.29 114.328 125.826 114.328C124.363 114.328 122.913 114.619 121.563 115.184C120.213 115.748 118.988 116.576 117.96 117.618C116.932 118.66 116.121 119.895 115.574 121.253C115.028 122.611 114.757 124.064 114.776 125.528C114.776 125.975 114.8 126.423 114.849 126.868H136.806C136.855 126.423 136.878 125.975 136.876 125.528Z" fill="#EAEAFF"/>
<path d="M154.217 126.744V126.987H6.7832V126.744H154.217Z" fill="#DADAF7"/>
</svg>
