<svg width="19" height="19" viewBox="0 0 19 19" fill="none" xmlns="http://www.w3.org/2000/svg">
<path d="M17.3776 18.2106C17.268 18.2109 17.1594 18.1895 17.0581 18.1477C16.9569 18.1058 16.8649 18.0442 16.7876 17.9666L13.7266 14.9056C12.15 16.1803 10.1444 16.8015 8.12327 16.6413C6.10215 16.481 4.21954 15.5515 2.8635 14.0443C1.50745 12.537 0.781321 10.567 0.834788 8.54025C0.888254 6.5135 1.71724 4.5845 3.15087 3.15087C4.5845 1.71724 6.5135 0.888254 8.54025 0.834788C10.567 0.781321 12.537 1.50745 14.0443 2.8635C15.5515 4.21954 16.481 6.10215 16.6413 8.12327C16.8015 10.1444 16.1803 12.15 14.9056 13.7266L17.9666 16.7876C18.0834 16.904 18.163 17.0525 18.1954 17.2143C18.2277 17.376 18.2113 17.5437 18.1482 17.6962C18.0851 17.8486 17.9782 17.9788 17.841 18.0704C17.7038 18.162 17.5425 18.2108 17.3776 18.2106ZM8.74857 2.49957C7.51244 2.49957 6.30407 2.86613 5.27626 3.55289C4.24845 4.23965 3.44737 5.21576 2.97433 6.3578C2.50128 7.49984 2.37751 8.75651 2.61867 9.96889C2.85982 11.1813 3.45508 12.2949 4.32916 13.169C5.20323 14.0431 6.31688 14.6383 7.52926 14.8795C8.74164 15.1206 9.99831 14.9969 11.1403 14.5238C12.2824 14.0508 13.2585 13.2497 13.9453 12.2219C14.632 11.1941 14.9986 9.98571 14.9986 8.74957C14.9967 7.09254 14.3376 5.5039 13.1659 4.3322C11.9942 3.1605 10.4056 2.50143 8.74857 2.49957Z" fill="#3D5CFF"/>
</svg>
