<?xml version="1.0" encoding="UTF-8"?>
<svg version="1.1" xmlns="http://www.w3.org/2000/svg" width="150" height="122">
<path d="M0 0 C49.5 0 99 0 150 0 C150 40.26 150 80.52 150 122 C100.5 122 51 122 0 122 C0 81.74 0 41.48 0 0 Z " fill="#D8F2F0" transform="translate(0,0)"/>
<path d="M0 0 C1.8150957 0.03787519 3.62886085 0.15492026 5.4375 0.3125 C6.92056641 0.43044922 6.92056641 0.43044922 8.43359375 0.55078125 C11 1 11 1 13 3 C13.16796875 4.84765625 13.16796875 4.84765625 13.1875 7.0625 C13.65519253 12.1506722 15.72962638 14.55352555 18.9609375 18.36328125 C30.35889969 33.10202546 35.74760121 52.16444865 35.3125 70.65625 C34.82433584 74.31748123 33.51937729 76.34802391 31 79 C25.71782029 82.41062921 21.21198191 82.41227869 15.13916016 82.34057617 C14.16292694 82.34101425 13.18669373 82.34145233 12.18087769 82.34190369 C8.96673307 82.33982023 5.75311556 82.31650965 2.5390625 82.29296875 C0.3056161 82.28737123 -1.92783399 82.28310187 -4.1612854 82.28010559 C-10.03035713 82.26866915 -15.89920499 82.23921205 -21.76818848 82.20599365 C-27.76079276 82.17526703 -33.75343334 82.1615947 -39.74609375 82.14648438 C-51.49749402 82.11434141 -63.24872837 82.06315937 -75 82 C-75 81.67 -75 81.34 -75 81 C-71.37 81 -67.74 81 -64 81 C-63.87625 79.35 -63.7525 77.7 -63.625 76 C-63.18039816 71.11564179 -62.33561506 66.71393549 -61 62 C-60.7525 60.9275 -60.505 59.855 -60.25 58.75 C-56.22044083 46.66132248 -50.61710951 37.89467136 -39.22265625 31.93359375 C-36.1019746 30.62279777 -33.36833786 30.21500029 -30 30 C-30 31.32 -30 32.64 -30 34 C-26.7 33.34 -23.4 32.68 -20 32 C-19.505 30.515 -19.505 30.515 -19 29 C-7.77822811 29.46854997 -0.88205276 32.65388036 7.25 40.390625 C8.72642414 42.11281902 8.72642414 42.11281902 10 42 C9.505 40.1746875 9.505 40.1746875 9 38.3125 C8.13590363 35.12614464 7.90748675 32.30156655 8 29 C7.22914062 28.95101562 6.45828125 28.90203125 5.6640625 28.8515625 C4.15972656 28.73941406 4.15972656 28.73941406 2.625 28.625 C1.12839844 28.52058594 1.12839844 28.52058594 -0.3984375 28.4140625 C-3 28 -3 28 -5 26 C-5.265625 23.13671875 -5.265625 23.13671875 -5.25 19.6875 C-5.25773437 17.99173828 -5.25773437 17.99173828 -5.265625 16.26171875 C-5.00383354 13.04707358 -4.32064186 10.91130344 -3 8 C-2.649375 6.7625 -2.29875 5.525 -1.9375 4.25 C-1 1 -1 1 0 0 Z " fill="#3E5CFB" transform="translate(86,27)"/>
<path d="M0 0 C4.62 0 9.24 0 14 0 C11.75390625 3.66210938 11.75390625 3.66210938 9.5078125 7.32421875 C6.51932818 12.62761709 5.69606055 16.93644007 5.67773438 22.99633789 C5.66283966 24.18283936 5.66283966 24.18283936 5.64764404 25.39331055 C5.61850437 28.00312835 5.60481108 30.61270265 5.59375 33.22265625 C5.58809525 34.11879576 5.58244049 35.01493526 5.57661438 35.93823051 C5.54666278 40.6853134 5.52818653 45.43227535 5.51953125 50.17944336 C5.50859751 55.05609377 5.46061173 59.9316172 5.40358734 64.80791569 C5.36611095 68.58032828 5.35591147 72.3524762 5.3528595 76.12505913 C5.34685036 77.92103642 5.33094334 79.71701153 5.30448914 81.51280403 C5.14431584 93.22681588 5.71145882 103.10748493 14.05407715 112.25135803 C20.4496942 118.40152789 26.87099057 120.45316974 35.53051758 120.41992188 C36.35428391 120.42839142 37.17805023 120.43686096 38.02677917 120.44558716 C40.73285639 120.46886409 43.43836175 120.46998142 46.14453125 120.46875 C48.03871382 120.47585809 49.93289426 120.48355804 51.82707214 120.49182129 C55.79208361 120.50524542 59.75689604 120.50684457 63.72192383 120.50097656 C68.78244794 120.49508786 73.84201022 120.52564737 78.90234852 120.56609344 C82.81366548 120.59205011 86.72475343 120.59484055 90.63614464 120.59120178 C92.50072327 120.59288613 94.36531327 120.60246211 96.2298069 120.62034607 C107.20627486 120.71403746 116.23994005 120.78908881 124.9934845 113.29284668 C134.81802777 103.27859611 134.62575664 90.74140378 134.6015625 77.62890625 C134.60935517 75.8573314 134.61802831 74.08576022 134.62753296 72.31419373 C134.64238013 68.61680947 134.64193117 64.91980744 134.63134766 61.22241211 C134.61975801 56.51396642 134.65365371 51.80709423 134.700037 47.09890842 C134.72967896 43.44482985 134.73123294 39.79112326 134.72501755 36.13694572 C134.7260353 34.40240293 134.73634585 32.6678369 134.75664139 30.93341255 C134.88343359 18.58673304 132.98534515 10.47801773 126 0 C133.92 0 141.84 0 150 0 C150 40.26 150 80.52 150 122 C100.5 122 51 122 0 122 C0 81.74 0 41.48 0 0 Z " fill="#FEFEFE" transform="translate(0,0)"/>
<path d="M0 0 C1.8150957 0.03787519 3.62886085 0.15492026 5.4375 0.3125 C6.92056641 0.43044922 6.92056641 0.43044922 8.43359375 0.55078125 C11 1 11 1 13 3 C13.16796875 4.84765625 13.16796875 4.84765625 13.1875 7.0625 C13.65519253 12.1506722 15.72962638 14.55352555 18.9609375 18.36328125 C30.35889969 33.10202546 35.74760121 52.16444865 35.3125 70.65625 C34.82433584 74.31748123 33.51937729 76.34802391 31 79 C26.7317277 82.04876593 22.66599118 82.63903588 17.53125 82.484375 C11.92573377 81.41171449 8.36224441 77.4321031 4.5625 73.4375 C3 71 3 71 2 66 C5.96 64.35 9.92 62.7 14 61 C12.41735753 52.78372846 10.7564601 44.66211543 8.55078125 36.5859375 C7.99524477 33.97767404 7.89924593 31.65798821 8 29 C7.22914062 28.95101562 6.45828125 28.90203125 5.6640625 28.8515625 C4.66117188 28.77679688 3.65828125 28.70203125 2.625 28.625 C1.12839844 28.52058594 1.12839844 28.52058594 -0.3984375 28.4140625 C-3 28 -3 28 -5 26 C-5.265625 23.13671875 -5.265625 23.13671875 -5.25 19.6875 C-5.25515625 18.55699219 -5.2603125 17.42648438 -5.265625 16.26171875 C-5.00383354 13.04707358 -4.32064186 10.91130344 -3 8 C-2.649375 6.7625 -2.29875 5.525 -1.9375 4.25 C-1 1 -1 1 0 0 Z " fill="#D65844" transform="translate(86,27)"/>
<path d="M0 0 C38.94 0 77.88 0 118 0 C111.6631001 7.39304989 107.65614253 11.63007013 97.85986328 12.45391846 C92.76132621 12.7236518 87.66645138 12.69627729 82.5625 12.6640625 C80.67260426 12.66743684 78.78271064 12.67229458 76.89282227 12.67855835 C72.94558913 12.68590056 68.99892448 12.6753102 65.05175781 12.65185547 C60.01478313 12.62336925 54.97914087 12.63978753 49.94221497 12.66971779 C46.04372277 12.6878628 42.14554183 12.68199986 38.24703979 12.66907883 C36.39085733 12.66576468 34.53464577 12.66976108 32.67849731 12.68147659 C12.88634953 12.7790115 12.88634953 12.7790115 6 7 C4.02 4.69 2.04 2.38 0 0 Z " fill="#D9F4F1" transform="translate(11,109)"/>
<path d="M0 0 C3.70237797 0.31917051 5.08801878 0.67403953 7.625 3.3125 C7.625 3.9725 7.625 4.6325 7.625 5.3125 C8.5325 5.250625 9.44 5.18875 10.375 5.125 C13.625 5.3125 13.625 5.3125 16 6.4375 C17.625 8.3125 17.625 8.3125 17.9375 11.25 C17.625 14.3125 17.625 14.3125 17 16.375 C16.47020784 19.11225952 17.57113103 20.77081601 18.625 23.3125 C19.31950282 28.86852255 16.69624887 31.90457291 13.4375 36.1875 C11.29868148 39.87511813 11.54458544 42.13094271 11.625 46.3125 C8.53611478 48.37175681 7.91564073 48.5515374 4.4375 48.4375 C3.179375 48.39625 1.92125 48.355 0.625 48.3125 C0.38716797 47.40757813 0.38716797 47.40757813 0.14453125 46.484375 C-1.36933461 41.29875712 -2.53497381 38.19346797 -7.375 35.3125 C-9.03083225 34.61936092 -10.69610979 33.94775576 -12.375 33.3125 C-14.375 31.3125 -14.375 31.3125 -14.8125 28.875 C-15.12908296 26.26291335 -15.12908296 26.26291335 -16.9375 24.875 C-18.375 23.3125 -18.375 23.3125 -18.8125 20.4375 C-18.27952101 16.63050725 -17.06727123 15.00477123 -14.375 12.3125 C-13.715 12.3125 -13.055 12.3125 -12.375 12.3125 C-12.045 10.6625 -11.715 9.0125 -11.375 7.3125 C-10.055 7.3125 -8.735 7.3125 -7.375 7.3125 C-7.08625 6.52875 -6.7975 5.745 -6.5 4.9375 C-4.86153642 1.11441832 -4.216876 0.39045148 0 0 Z " fill="#F79B42" transform="translate(55.375,12.6875)"/>
<path d="M0 0 C0.33 0.66 0.66 1.32 1 2 C1.81082031 1.91621094 2.62164062 1.83242187 3.45703125 1.74609375 C10.72854665 1.07735136 17.76971636 0.75815739 25 2 C26 3 26 3 26.0625 5.5625 C26.041875 6.366875 26.02125 7.17125 26 8 C26.99 8.33 27.98 8.66 29 9 C28.34 9 27.68 9 27 9 C27.020625 10.299375 27.04125 11.59875 27.0625 12.9375 C27.08399454 14.29165633 27.07148199 15.64756083 27 17 C25.06826897 18.93173103 21.60844406 18.63390259 19 19 C18.34 19.33 17.68 19.66 17 20 C14.95944995 20.07065617 12.91665743 20.08421976 10.875 20.0625 C9.77929688 20.05347656 8.68359375 20.04445313 7.5546875 20.03515625 C6.71164063 20.02355469 5.86859375 20.01195313 5 20 C5 19.67 5 19.34 5 19 C2.69 18.34 0.38 17.68 -2 17 C-1.98839844 16.08476563 -1.97679687 15.16953125 -1.96484375 14.2265625 C-1.95582031 13.03804687 -1.94679687 11.84953125 -1.9375 10.625 C-1.92589844 9.44164063 -1.91429687 8.25828125 -1.90234375 7.0390625 C-1.78533407 4.08078479 -1.78533407 4.08078479 -3 2 C-2.01 1.34 -1.02 0.68 0 0 Z " fill="#3E5CFF" transform="translate(51,70)"/>
<path d="M0 0 C0.66 0 1.32 0 2 0 C2.66 1.98 3.32 3.96 4 6 C2.35 5.34 0.7 4.68 -1 4 C-1 4.66 -1 5.32 -1 6 C1.97 6.33 4.94 6.66 8 7 C8.48313439 12.63656787 6.13396747 15.50964276 2.8125 19.875 C0.67368148 23.56261813 0.91958544 25.81844271 1 30 C-2.08888522 32.05925681 -2.70935927 32.2390374 -6.1875 32.125 C-7.445625 32.08375 -8.70375 32.0425 -10 32 C-10.07476562 31.33613281 -10.14953125 30.67226563 -10.2265625 29.98828125 C-11.13350494 23.64051347 -11.13350494 23.64051347 -15.125 18.875 C-16.07375 18.25625 -17.0225 17.6375 -18 17 C-17.67 15.35 -17.34 13.7 -17 12 C-15.68 12 -14.36 12 -13 12 C-13 10.02 -13 8.04 -13 6 C-11.68 6 -10.36 6 -9 6 C-8.67 6.66 -8.34 7.32 -8 8 C-7.34 6.02 -6.68 4.04 -6 2 C-4.35 2 -2.7 2 -1 2 C-0.67 1.34 -0.34 0.68 0 0 Z " fill="#D55542" transform="translate(66,29)"/>
<path d="M0 0 C0.33 1.32 0.66 2.64 1 4 C0.33613281 4.42410156 -0.32773437 4.84820312 -1.01171875 5.28515625 C-11.93515695 12.54087068 -15.01245075 19.76585955 -19 32 C-16.36 32.33 -13.72 32.66 -11 33 C-11.639375 33.103125 -12.27875 33.20625 -12.9375 33.3125 C-13.618125 33.539375 -14.29875 33.76625 -15 34 C-15.33 34.99 -15.66 35.98 -16 37 C-19.96 36.34 -23.92 35.68 -28 35 C-27.34 33.35 -26.68 31.7 -26 30 C-25.7214025 28.6095921 -25.47075702 27.21325588 -25.25 25.8125 C-23.10515953 15.95605754 -16.91936714 8.91823673 -9 3 C-5.58877042 0.97853062 -3.9302278 0 0 0 Z " fill="#4D6AFE" transform="translate(52,58)"/>
<path d="M0 0 C5.56890517 0.47986031 10.67067568 1.29915181 16 3 C16.0272415 4.41655793 16.04650467 5.83327045 16.0625 7.25 C16.07410156 8.03890625 16.08570312 8.8278125 16.09765625 9.640625 C16 12 16 12 15 16 C5.76 16 -3.48 16 -13 16 C-13 15.67 -13 15.34 -13 15 C-9.37 15 -5.74 15 -2 15 C-1.855625 13.2675 -1.71125 11.535 -1.5625 9.75 C-1.28279255 6.39351063 -0.919102 3.24388943 0 0 Z " fill="#D05B49" transform="translate(24,93)"/>
<path d="M0 0 C11.40681296 1.59552499 18.65614373 5.63864972 26.1796875 14.43359375 C29.53221135 19.16022072 30 23.22417552 30 29 C28.35 29.33 26.7 29.66 25 30 C25.66 29.67 26.32 29.34 27 29 C21.16775196 18.25036636 15.06660691 9.32349744 3.1875 5.1328125 C1 4 1 4 0.1875 1.8671875 C0.125625 1.25101563 0.06375 0.63484375 0 0 Z " fill="#526DFD" transform="translate(70,56)"/>
<path d="M0 0 C0.66 0 1.32 0 2 0 C2.66 1.98 3.32 3.96 4 6 C2.35 5.34 0.7 4.68 -1 4 C-1 4.66 -1 5.32 -1 6 C-0.34 6.33 0.32 6.66 1 7 C1.33 7.33 1.66 7.66 2 8 C0.25 11.875 0.25 11.875 -2 13 C-1.01 13.33 -0.02 13.66 1 14 C1 15.65 1 17.3 1 19 C-0.65 19.33 -2.3 19.66 -4 20 C-6.1519437 16.77208445 -6.20086443 15.71599191 -6 12 C-7.1446875 12.556875 -7.1446875 12.556875 -8.3125 13.125 C-9.199375 13.41375 -10.08625 13.7025 -11 14 C-11.99 13.34 -12.98 12.68 -14 12 C-13.67 10.02 -13.34 8.04 -13 6 C-11.68 6 -10.36 6 -9 6 C-8.67 6.66 -8.34 7.32 -8 8 C-7.34 6.02 -6.68 4.04 -6 2 C-4.35 2 -2.7 2 -1 2 C-0.67 1.34 -0.34 0.68 0 0 Z " fill="#D75B44" transform="translate(66,29)"/>
<path d="M0 0 C1.46953125 0.14695312 1.46953125 0.14695312 2.96875 0.296875 C3.9484375 0.38453125 4.928125 0.4721875 5.9375 0.5625 C8.46875 1.046875 8.46875 1.046875 10.46875 3.046875 C10.59375 6.171875 10.59375 6.171875 10.46875 9.046875 C9.47875 9.541875 9.47875 9.541875 8.46875 10.046875 C7.13087411 9.38937189 5.79823552 8.7211824 4.46875 8.046875 C2.11310404 7.59876363 2.11310404 7.59876363 -0.28125 7.421875 C-1.48007813 7.30972656 -1.48007813 7.30972656 -2.703125 7.1953125 C-3.30640625 7.14632812 -3.9096875 7.09734375 -4.53125 7.046875 C-4.65625 4.671875 -4.65625 4.671875 -4.53125 2.046875 C-2.53125 0.046875 -2.53125 0.046875 0 0 Z " fill="#27263E" transform="translate(88.53125,26.953125)"/>
<path d="M0 0 C10.395 0.99 10.395 0.99 21 2 C21.66 3.65 22.32 5.3 23 7 C21.906875 6.979375 20.81375 6.95875 19.6875 6.9375 C16.05615809 6.81455548 16.05615809 6.81455548 13 8 C10.6682503 6.93430618 8.52478591 5.83522353 6.3125 4.5625 C5.70599609 4.22412109 5.09949219 3.88574219 4.47460938 3.53710938 C2.9779975 2.70042085 1.48830811 1.85137169 0 1 C0 0.67 0 0.34 0 0 Z " fill="#F0F0FC" transform="translate(18,9)"/>
<path d="M0 0 C0.33 0.66 0.66 1.32 1 2 C1.81082031 1.91621094 2.62164062 1.83242187 3.45703125 1.74609375 C10.72854665 1.07735136 17.76971636 0.75815739 25 2 C26 3 26 3 26.0625 6.0625 C26.041875 7.031875 26.02125 8.00125 26 9 C25.67 9 25.34 9 25 9 C24.67 7.35 24.34 5.7 24 4 C16.41 4 8.82 4 1 4 C0.67 8.29 0.34 12.58 0 17 C-0.66 17 -1.32 17 -2 17 C-1.98839844 16.08476563 -1.97679687 15.16953125 -1.96484375 14.2265625 C-1.95582031 13.03804687 -1.94679687 11.84953125 -1.9375 10.625 C-1.92589844 9.44164063 -1.91429687 8.25828125 -1.90234375 7.0390625 C-1.78533407 4.08078479 -1.78533407 4.08078479 -3 2 C-2.01 1.34 -1.02 0.68 0 0 Z " fill="#778CFF" transform="translate(51,70)"/>
<path d="M0 0 C0.33 1.98 0.66 3.96 1 6 C0.01 5.34 -0.98 4.68 -2 4 C-2.54269531 4.51691406 -3.08539063 5.03382812 -3.64453125 5.56640625 C-4.35996094 6.22511719 -5.07539062 6.88382812 -5.8125 7.5625 C-6.87404297 8.55443359 -6.87404297 8.55443359 -7.95703125 9.56640625 C-8.63121094 10.03949219 -9.30539063 10.51257813 -10 11 C-10.99 10.67 -11.98 10.34 -13 10 C-13.33 8.35 -13.66 6.7 -14 5 C-12.04350603 4.16235732 -10.08474444 3.33000941 -8.125 2.5 C-6.48917969 1.80390625 -6.48917969 1.80390625 -4.8203125 1.09375 C-2 0 -2 0 0 0 Z " fill="#BA4034" transform="translate(102,88)"/>
<path d="M0 0 C0.66 0 1.32 0 2 0 C2.33 0.66 2.66 1.32 3 2 C5.3140622 2.73075648 7.64828869 3.40138258 10 4 C10.33 5.32 10.66 6.64 11 8 C9.37536158 8.05395478 7.75021459 8.09277195 6.125 8.125 C5.22007813 8.14820313 4.31515625 8.17140625 3.3828125 8.1953125 C1 8 1 8 -1 6 C-0.625 2.875 -0.625 2.875 0 0 Z " fill="#312C42" transform="translate(82,47)"/>
<path d="M0 0 C1.32 0.33 2.64 0.66 4 1 C3.05170627 3.37073432 2.42458856 4.73074872 0.23828125 6.1171875 C-2.33929322 7.13382246 -4.29815642 7.26667779 -7.0625 7.25 C-7.91972656 7.25515625 -8.77695312 7.2603125 -9.66015625 7.265625 C-12 7 -12 7 -15 5 C-15 4.01 -15 3.02 -15 2 C-13.68 1.67 -12.36 1.34 -11 1 C-11 2.32 -11 3.64 -11 5 C-7.7 4.34 -4.4 3.68 -1 3 C-0.67 2.01 -0.34 1.02 0 0 Z " fill="#2C4DEC" transform="translate(67,56)"/>
<path d="M0 0 C1.86785156 0.01353516 1.86785156 0.01353516 3.7734375 0.02734375 C5.18496094 0.04474609 5.18496094 0.04474609 6.625 0.0625 C6.955 2.7025 7.285 5.3425 7.625 8.0625 C6.125 6.6875 6.125 6.6875 4.625 5.0625 C4.625 4.4025 4.625 3.7425 4.625 3.0625 C3.82835938 3.07410156 3.03171875 3.08570313 2.2109375 3.09765625 C-8.31348858 3.18728032 -8.31348858 3.18728032 -13.375 2.0625 C-13.375 1.7325 -13.375 1.4025 -13.375 1.0625 C-8.85684719 0.17972245 -4.59987306 -0.04339503 0 0 Z " fill="#DDDDF7" transform="translate(34.375,7.9375)"/>
<path d="M0 0 C2.10478604 0.11409682 4.20884577 0.24165361 6.3125 0.375 C7.48425781 0.44460937 8.65601563 0.51421875 9.86328125 0.5859375 C13 1 13 1 16 3 C14.68 3 13.36 3 12 3 C11.67 3.99 11.34 4.98 11 6 C5.06 5.01 5.06 5.01 -1 4 C-0.67 2.68 -0.34 1.36 0 0 Z " fill="#4D66F8" transform="translate(25,89)"/>
<path d="M0 0 C0.391875 0.53625 0.78375 1.0725 1.1875 1.625 C4.25035673 5.63839848 7.42918003 9.42918003 11 13 C8.03 13 5.06 13 2 13 C0 4.5 0 4.5 0 0 Z " fill="#CCE0E9" transform="translate(88,95)"/>
<path d="M0 0 C0.33 1.32 0.66 2.64 1 4 C-0.60387267 5.1254191 -2.20810916 6.25031972 -3.8125 7.375 C-4.70582031 8.00148438 -5.59914063 8.62796875 -6.51953125 9.2734375 C-8.33267878 10.53550239 -10.16188211 11.77458808 -12 13 C-12 10 -12 10 -9.6875 7.4375 C-7 5 -7 5 -4 3 C-4.33 2.34 -4.66 1.68 -5 1 C-3 0 -3 0 0 0 Z " fill="#677FFE" transform="translate(52,58)"/>
<path d="M0 0 C0.33 0 0.66 0 1 0 C1.04241723 2.33294775 1.04092937 4.66702567 1 7 C-0.93173103 8.93173103 -4.39155594 8.63390259 -7 9 C-7.99 9.495 -7.99 9.495 -9 10 C-11.04055005 10.07065617 -13.08334257 10.08421976 -15.125 10.0625 C-16.22070312 10.05347656 -17.31640625 10.04445313 -18.4453125 10.03515625 C-19.70988281 10.01775391 -19.70988281 10.01775391 -21 10 C-21 9.67 -21 9.34 -21 9 C-22.65 8.67 -24.3 8.34 -26 8 C-26 7.67 -26 7.34 -26 7 C-24.42412109 7.01740234 -24.42412109 7.01740234 -22.81640625 7.03515625 C-15.46073519 7.09119946 -8.29940004 7.04277143 -1 6 C-0.67 4.02 -0.34 2.04 0 0 Z " fill="#7D90FF" transform="translate(77,80)"/>
<path d="M0 0 C2.05078125 0.03255208 4.1015625 0.06510417 6.15234375 0.09765625 C6.19506475 1.7637753 6.19298207 3.4314851 6.15234375 5.09765625 C5.15234375 6.09765625 5.15234375 6.09765625 2.08984375 6.16015625 C1.12046875 6.13953125 0.15109375 6.11890625 -0.84765625 6.09765625 C-0.84765625 4.77765625 -0.84765625 3.45765625 -0.84765625 2.09765625 C-1.50765625 1.76765625 -2.16765625 1.43765625 -2.84765625 1.09765625 C-1.84765625 0.09765625 -1.84765625 0.09765625 0 0 Z " fill="#BF4230" transform="translate(67.84765625,35.90234375)"/>
<path d="M0 0 C5.23880078 0.55145271 9.97350697 1.42922093 15 3 C14.67 4.32 14.34 5.64 14 7 C11.85101768 6.2169216 9.70587905 5.42328757 7.5625 4.625 C6.36753906 4.18414062 5.17257813 3.74328125 3.94140625 3.2890625 C1 2 1 2 0 0 Z " fill="#BE3E31" transform="translate(25,93)"/>
<path d="M0 0 C1.67542976 0.28604898 3.34385343 0.61781233 5 1 C5 3.64 5 6.28 5 9 C2.5625 7.8125 2.5625 7.8125 0 6 C-0.875 3.375 -0.875 3.375 -1 1 C-0.67 0.67 -0.34 0.34 0 0 Z " fill="#BB3E2A" transform="translate(49,41)"/>
<path d="M0 0 C1.01573289 3.04719867 1.0097124 3.98833004 0.44140625 7.01171875 C0.30283203 7.76904297 0.16425781 8.52636719 0.02148438 9.30664062 C-0.12998047 10.09232422 -0.28144531 10.87800781 -0.4375 11.6875 C-0.58509766 12.48478516 -0.73269531 13.28207031 -0.88476562 14.10351562 C-1.24984964 16.07025852 -1.62405289 18.03530467 -2 20 C-2.12246094 19.36578125 -2.24492188 18.7315625 -2.37109375 18.078125 C-2.80696091 15.80283433 -2.80696091 15.80283433 -5.0625 14.75 C-5.701875 14.5025 -6.34125 14.255 -7 14 C-6.67 13.34 -6.34 12.68 -6 12 C-4.68 12 -3.36 12 -2 12 C-1.93941406 11.30132812 -1.87882812 10.60265625 -1.81640625 9.8828125 C-1.73261719 8.97273438 -1.64882813 8.06265625 -1.5625 7.125 C-1.48128906 6.22007813 -1.40007813 5.31515625 -1.31640625 4.3828125 C-1 2 -1 2 0 0 Z " fill="#2F47CC" transform="translate(43,80)"/>
<path d="M0 0 C-0.99 1.485 -0.99 1.485 -2 3 C-5.2578125 3.29296875 -5.2578125 3.29296875 -9.125 3.1875 C-11.04699219 3.14689453 -11.04699219 3.14689453 -13.0078125 3.10546875 C-13.99523437 3.07066406 -14.98265625 3.03585937 -16 3 C-10.91011455 0.26014919 -5.73118908 -0.1736724 0 0 Z M-22 3 C-20.02 3 -18.04 3 -16 3 C-16 3.33 -16 3.66 -16 4 C-17.98 4 -19.96 4 -22 4 C-22 3.67 -22 3.34 -22 3 Z " fill="#F0F2FB" transform="translate(43,5)"/>
<path d="M0 0 C0 1.65 0 3.3 0 5 C-1.65 5.33 -3.3 5.66 -5 6 C-5.33 4.35 -5.66 2.7 -6 1 C-4 0 -4 0 0 0 Z " fill="#F8D8DA" transform="translate(67,43)"/>
<path d="M0 0 C1.32 0.33 2.64 0.66 4 1 C4 1.99 4 2.98 4 4 C4.763125 3.979375 5.52625 3.95875 6.3125 3.9375 C9 4 9 4 12 5 C12 5.99 12 6.98 12 8 C10.5410574 7.52269162 9.08286504 7.04308958 7.625 6.5625 C6.81289062 6.29566406 6.00078125 6.02882813 5.1640625 5.75390625 C3 5 3 5 1 4 C0.375 1.9375 0.375 1.9375 0 0 Z " fill="#6B83FE" transform="translate(70,56)"/>
<path d="M0 0 C2.31 0 4.62 0 7 0 C7 1.98 7 3.96 7 6 C4.625 5.8125 4.625 5.8125 2 5 C0.6875 2.4375 0.6875 2.4375 0 0 Z " fill="#B74839" transform="translate(60,51)"/>
<path d="M0 0 C0.33 0.66 0.66 1.32 1 2 C1.66 2 2.32 2 3 2 C3 3.32 3 4.64 3 6 C1.35 6.33 -0.3 6.66 -2 7 C-1.34 6.67 -0.68 6.34 0 6 C-0.2784375 5.071875 -0.2784375 5.071875 -0.5625 4.125 C-1 2 -1 2 0 0 Z " fill="#7184FB" transform="translate(97,79)"/>
<path d="M0 0 C2.64 0.33 5.28 0.66 8 1 C7.01 2.485 7.01 2.485 6 4 C4.02 3.01 2.04 2.02 0 1 C0 0.67 0 0.34 0 0 Z " fill="#B8413E" transform="translate(25,93)"/>
</svg>
