<svg width="48" height="62" viewBox="0 0 48 62" fill="none" xmlns="http://www.w3.org/2000/svg">
<path d="M0.543156 61.508L0.0351562 61.406C0.0351562 61.406 0.0411563 61.378 0.0511563 61.331C0.251156 60.431 0.489156 59.451 0.746156 58.41L1.22816 58.537C0.783156 60.342 0.552156 61.46 0.542156 61.507L0.543156 61.508ZM2.04316 55.591L1.56216 55.464C1.81016 54.607 2.06216 53.715 2.30616 52.852L2.40016 52.519L2.88216 52.671C2.60416 53.549 2.33016 54.503 2.04416 55.59L2.04316 55.591ZM3.79416 49.752L3.31316 49.599C3.63416 48.559 3.98116 47.552 4.27816 46.705L4.76016 46.883C4.36016 48.031 4.06016 48.915 3.79616 49.751L3.79416 49.752ZM5.77516 44.014L5.29416 43.836C5.58916 43.036 5.90016 42.236 6.20116 41.467L6.38616 40.993L6.86816 41.17L6.67316 41.67C6.37316 42.434 6.06716 43.223 5.77316 44.013L5.77516 44.014ZM8.03516 38.351L7.57916 38.151C7.83816 37.551 8.11116 36.944 8.37916 36.357C8.53116 36.0197 8.68049 35.6864 8.82716 35.357L9.28416 35.586L9.15316 35.873C8.78416 36.681 8.40316 37.515 8.04116 38.353L8.03516 38.351ZM10.6242 32.867L10.1692 32.639C10.6082 31.783 11.0692 30.928 11.6162 29.947L12.0472 30.202C11.5952 31.028 11.1102 31.922 10.6252 32.867H10.6242ZM13.6452 27.591L13.2142 27.312C13.7412 26.475 14.3142 25.621 14.9142 24.773L15.3212 25.078C14.8012 25.81 14.1992 26.667 13.6462 27.591H13.6452ZM17.1742 22.665L16.7692 22.335C17.4772 21.457 18.1252 20.693 18.7492 19.999L19.1302 20.329C18.9168 20.5837 18.7038 20.836 18.4912 21.086C18.0542 21.602 17.6042 22.133 17.1762 22.665H17.1742ZM21.1852 18.12L20.8302 17.765L20.8542 17.74C21.5462 17.024 22.2602 16.284 22.9882 15.607L23.3432 15.963C22.6112 16.67 21.9052 17.375 21.1862 18.12H21.1852ZM25.5782 13.905L25.2482 13.524C25.9602 12.884 26.7252 12.237 27.5842 11.544L27.9142 11.95C27.1014 12.5599 26.3217 13.2125 25.5782 13.905ZM30.2782 10.071L29.9782 9.66502C30.7902 9.05602 31.6422 8.46502 32.4652 7.88802L32.7452 8.32002C31.9922 8.83802 31.1112 9.45002 30.2832 10.072L30.2782 10.071ZM35.3052 6.64302L35.0272 6.21202C35.8062 5.73102 36.7272 5.17302 37.6682 4.66302L37.9222 5.09502C37.0382 5.57502 36.1652 6.11402 35.3222 6.63602L35.3092 6.64402L35.3052 6.64302ZM40.5862 3.67202L40.3552 3.21102L40.7702 3.01102C41.5802 2.61602 42.3442 2.24302 43.1222 1.91902L43.3222 2.37502C42.5292 2.73802 41.5432 3.18902 40.5812 3.67002L40.5862 3.67202ZM46.1452 1.25602L45.9672 0.773016C46.9122 0.441016 47.4162 0.291016 47.4352 0.291016L47.5632 0.773016C47.5214 0.790485 47.4787 0.805511 47.4352 0.818016C47.2202 0.887016 46.7752 1.02802 46.1462 1.25602H46.1452Z" fill="#EAEAFF"/>
</svg>
